<svg width="800" height="800" viewBox="0 0 120 120" fill="none" xmlns="http://www.w3.org/2000/svg"><path fill="#EFF1F3" d="M0 0h120v120H0z"/><path fill-rule="evenodd" clip-rule="evenodd" d="M33.25 38.482a2.625 2.625 0 012.604-2.607h47.292a2.606 2.606 0 012.604 2.607v42.036a2.625 2.625 0 01-2.604 2.607H35.854a2.607 2.607 0 01-2.604-2.607V38.482zm47.25 2.643h-42v36.75l24.392-24.397a2.625 2.625 0 013.712 0L80.5 67.401V41.125zm-36.75 10.5a5.25 5.25 0 1010.5 0 5.25 5.25 0 00-10.5 0z" fill="#687787"/></svg>